<?xml version="1.0" encoding="utf-8"?>
<!-- Generator: Adobe Illustrator 26.1.0, SVG Export Plug-In . SVG Version: 6.00 Build 0)  -->
<svg version="1.1" id="レイヤー_1" xmlns="http://www.w3.org/2000/svg" xmlns:xlink="http://www.w3.org/1999/xlink" x="0px"
	 y="0px" viewBox="0 0 314 230" style="enable-background:new 0 0 314 230;" xml:space="preserve">
<style type="text/css">
	.st0{fill:#FFFFFF;}
	.st1{fill:#FF00FF;}
	.st2{fill:#FFFF00;}
	.st3{fill:#00FF00;}
	.st4{fill:#0000FF;}
	.st5{fill:#00FFFF;}
	.st6{fill:#FF0000;}
	.st7{fill:#BABABA;}
</style>
<rect width="314" height="230"/>
<g>
	<path class="st0" d="M123,15v-1h5v1h-2v8h-1v-8H123z"/>
	<path class="st0" d="M129,22h-1v-4h1V22z M132,18h-3v-1h3V18z M132,23h-3v-1h3V23z M132,22v-4h1v4H132z"/>
	<path class="st0" d="M134,18v-1h1v-3h1v3h2v1h-2v4h2v1h-2v-1h-1v-4H134z M138,22v-1h1v1H138z"/>
	<path class="st0" d="M140,18v-1h3v1h1v5h-4v-1h3v-2h-3v2h-1v-2h1v-1h3v-1H140z"/>
	<path class="st0" d="M145,15v-1h2v8h1v1h-2v-8H145z"/>
	<path class="st0" d="M154,21v-1h1v-3h-1v-1h1v-2h1v2h1v-2h1v2h1v1h-1v3h1v1h-1v2h-1v-2h-1v2h-1v-2H154z M157,20v-3h-1v3H157z"/>
	<path class="st0" d="M160,17v-1h1v1H160z M163,14v9h-1v-7h-1v-1h1v-1H163z"/>
	<path class="st0" d="M164,17v-1h1v1H164z M167,14v9h-1v-7h-1v-1h1v-1H167z"/>
	<path class="st0" d="M169,22v-1h1v-1h1v1h1v1h-1v1h-1v-1H169z M169,24v-1h1v1H169z"/>
	<path class="st0" d="M174,22h-1v-6h1v1h3v1h-3V22z M174,16v-1h1v1H174z M177,23h-3v-1h3V23z M177,15h-2v-1h2V15z M177,22v-4h1v4
		H177z"/>
	<path class="st0" d="M180,22h-1v-6h1v1h3v1h-3V22z M180,16v-1h1v1H180z M183,23h-3v-1h3V23z M183,15h-2v-1h2V15z M183,22v-4h1v4
		H183z"/>
	<path class="st0" d="M189,21v2h-1v-2h-3v-3h1v2h2v-4h-1v2h-1v-2h1v-2h2v6h1v1H189z"/>
</g>
<g>
	<path class="st0" d="M216,52h-1v-6h1V52z M217,52v3h-1v-3H217z M218,52h-1v-6h1V52z M219,52v3h-1v-3H219z M219,52v-6h1v6H219z"/>
	<path class="st0" d="M222,51v4h-1v-9h1v4h1v1H222z M225,50h-2v-1h2V50z M226,50v5h-1v-5H226z"/>
	<path class="st0" d="M227,55v-1h1v-4h-1v-1h2v5h1v1H227z M228,46v-1h1v1H228z"/>
	<path class="st0" d="M231,50v-1h1v-3h1v3h2v1h-2v4h2v1h-2v-1h-1v-4H231z M235,54v-1h1v1H235z"/>
	<path class="st0" d="M238,54h-1v-4h1v1h3v-1h1v2h-4V54z M241,50h-3v-1h3V50z M241,55h-3v-1h3V55z M241,54v-1h1v1H241z"/>
	<path class="st0" d="M243,47v-1h2v8h1v1h-2v-8H243z"/>
	<path class="st0" d="M248,55v-1h1v-4h-1v-1h2v5h1v1H248z M249,46v-1h1v1H249z"/>
	<path class="st0" d="M252,51v-1h1v1h3v1h1v2h-1v-2h-3v-1H252z M252,54v-1h1v1h3v1h-3v-1H252z M256,50h-3v-1h3V50z M256,51v-1h1v1
		H256z"/>
	<path class="st0" d="M258,50v-1h1v-3h1v3h2v1h-2v4h2v1h-2v-1h-1v-4H258z M262,54v-1h1v1H262z"/>
	<path class="st0" d="M216,63v4h-1v-9h4v1h1v3h-1v1H216z M216,62h3v-3h-3V62z"/>
	<path class="st0" d="M222,63v4h-1v-9h4v1h1v3h-1v1h-1v1h1v1h-1v-1h-1v-1H222z M222,62h3v-3h-3V62z M226,65v2h-1v-2H226z"/>
	<path class="st0" d="M232,67h-5v-9h5v1h-4v3h3v1h-3v3h4V67z"/>
	<path class="st0" d="M234,62h-1v-3h1V62z M233,66v-1h1v1h3v1h-3v-1H233z M237,59h-3v-1h3V59z M237,63h-3v-1h3V63z M237,59h1v1h-1
		V59z M237,66v-3h1v3H237z"/>
	<path class="st0" d="M244,63v4h-1v-3h-3v3h-1v-4h1v-3h1v3h1v-3h1v3H244z M242,60h-1v-2h1V60z"/>
	<path class="st0" d="M250,67h-5v-9h1v8h4V67z"/>
	<path class="st0" d="M256,67h-5v-9h5v1h-4v3h3v1h-3v3h4V67z"/>
	<path class="st0" d="M262,65v-1h1v-3h-1v-1h1v-2h1v2h1v-2h1v2h1v1h-1v3h1v1h-1v2h-1v-2h-1v2h-1v-2H262z M265,64v-3h-1v3H265z"/>
	<path class="st0" d="M268,59v-1h5v2h-1v1h-1v-1h1v-1H268z M268,66v-1h1v1h3v1h-3v-1H268z M269,63v-1h1v-1h1v1h1v1h1v3h-1v-3H269z"
		/>
	<path class="st0" d="M274,66v-1h1v-1h1v1h1v1h-1v1h-1v-1H274z M274,68v-1h1v1H274z"/>
	<path class="st0" d="M282,62h-4v-4h5v1h-4v2h3V62z M279,66h-1v-2h1V66z M282,67h-3v-1h3V67z M282,66v-4h1v4H282z"/>
	<path class="st0" d="M288,66v-4h-1v1h-1v1h-1v2h-1v-7h1v4h1v-1h1v-1h1v-2h1v7H288z M288,59h-3v-1h3V59z M288,67h-3v-1h3V67z"/>
	<path class="st0" d="M294,66v-4h-1v1h-1v1h-1v2h-1v-7h1v4h1v-1h1v-1h1v-2h1v7H294z M294,59h-3v-1h3V59z M294,67h-3v-1h3V67z"/>
	<path class="st0" d="M215,71v-1h5v2h-1v1h-1v-1h1v-1H215z M215,78v-1h1v1h3v1h-3v-1H215z M216,75v-1h1v-1h1v1h1v1h1v3h-1v-3H216z"
		/>
	<path class="st0" d="M225,78v-4h-1v1h-1v1h-1v2h-1v-7h1v4h1v-1h1v-1h1v-2h1v7H225z M225,71h-3v-1h3V71z M225,79h-3v-1h3V79z"/>
	<path class="st0" d="M227,72v-1h1v1h1v1h-1v-1H227z M227,77v-1h1v1H227z M229,71h-1v-1h1V71z M228,76v-1h1v1H228z M229,72v-1h1v1
		H229z M229,75v-1h1v1H229z M229,78v-1h1v1h1v1h-1v-1H229z M230,74v-1h1v1H230z M231,77h-1v-1h1V77z M231,73v-1h1v1H231z M231,78v-1
		h1v1H231z"/>
</g>
<g>
	<path class="st0" d="M215,150v-1h5v1h-2v8h-1v-8H215z"/>
	<path class="st0" d="M222,157h-1v-4h1v1h3v-1h1v2h-4V157z M225,153h-3v-1h3V153z M225,158h-3v-1h3V158z M225,157v-1h1v1H225z"/>
	<path class="st0" d="M228,153v-1h3v1h1v5h-4v-1h3v-2h-3v2h-1v-2h1v-1h3v-1H228z"/>
	<path class="st0" d="M236,153v5h-1v-5h-1v5h-1v-6h4v1H236z M238,153v5h-1v-5H238z"/>
	<path class="st0" d="M239,157v-1h1v-1h1v1h1v1h-1v1h-1v-1H239z M239,159v-1h1v1H239z"/>
	<path class="st0" d="M249,154v4h-1v-3h-3v3h-1v-4h1v-3h1v3h1v-3h1v3H249z M247,151h-1v-2h1V151z"/>
	<path class="st0" d="M251,154v4h-1v-6h1v1h1v1H251z M254,153h-2v-1h2V153z M254,153h1v1h-1V153z"/>
	<path class="st0" d="M255,153v-1h1v-3h1v3h2v1h-2v4h2v1h-2v-1h-1v-4H255z M259,157v-1h1v1H259z"/>
	<path class="st0" d="M261,158v-1h1v-4h-1v-1h2v5h1v1H261z M262,149v-1h1v1H262z"/>
	<path class="st0" d="M265,154v-1h1v1h3v1h1v2h-1v-2h-3v-1H265z M265,157v-1h1v1h3v1h-3v-1H265z M269,153h-3v-1h3V153z M269,154v-1
		h1v1H269z"/>
	<path class="st0" d="M271,153v-1h1v-3h1v3h2v1h-2v4h2v1h-2v-1h-1v-4H271z M275,157v-1h1v1H275z"/>
	<path class="st0" d="M277,154v-1h1v1h3v1h1v2h-1v-2h-3v-1H277z M277,157v-1h1v1h3v1h-3v-1H277z M281,153h-3v-1h3V153z M281,154v-1
		h1v1H281z"/>
	<path class="st0" d="M283,157v-1h1v-1h1v1h1v1h-1v1h-1v-1H283z M283,159v-1h1v1H283z"/>
	<path class="st0" d="M217,166v4h-1v-9h5v1h-4v3h3v1H217z"/>
	<path class="st0" d="M223,164h-1v-2h1V164z M223,169h-1v-3h1V169z M225,162h-2v-1h2V162z M224,166h-1v-2h2v1h-1V166z M225,170h-2
		v-1h2V170z M225,167h-1v-1h1V167z M225,164v-2h1v2H225z M226,169h-1v-2h1V169z M226,167v-2h1v2H226z M226,169h1v1h-1V169z"/>
	<path class="st0" d="M229,166v4h-1v-9h5v1h-4v3h3v1H229z"/>
	<path class="st0" d="M240,164h-1v-2h1V164z M240,169h-1v-3h1V169z M242,162h-2v-1h2V162z M241,166h-1v-2h2v1h-1V166z M242,170h-2
		v-1h2V170z M242,167h-1v-1h1V167z M242,164v-2h1v2H242z M243,169h-1v-2h1V169z M243,167v-2h1v2H243z M243,169h1v1h-1V169z"/>
	<path class="st0" d="M252,169h-1v-7h1V169z M255,162h-3v-1h3V162z M255,170h-3v-1h3V170z M255,162h1v1h-1V162z M255,169v-1h1v1H255
		z"/>
	<path class="st0" d="M258,169h-1v-4h1V169z M261,165h-3v-1h3V165z M261,170h-3v-1h3V170z M261,169v-4h1v4H261z"/>
	<path class="st0" d="M266,165v5h-1v-5h-1v5h-1v-6h4v1H266z M268,165v5h-1v-5H268z"/>
	<path class="st0" d="M272,165v5h-1v-5h-1v5h-1v-6h4v1H272z M274,165v5h-1v-5H274z"/>
	<path class="st0" d="M276,169h-1v-5h1V169z M278,170h-2v-1h2V170z M280,164v6h-1v-1h-1v-1h1v-4H280z"/>
	<path class="st0" d="M282,166v4h-1v-6h1v1h1v1H282z M285,165h-2v-1h2V165z M286,165v5h-1v-5H286z"/>
	<path class="st0" d="M287,170v-1h1v-4h-1v-1h2v5h1v1H287z M288,161v-1h1v1H288z"/>
	<path class="st0" d="M291,165v-1h1v-3h1v3h2v1h-2v4h2v1h-2v-1h-1v-4H291z M295,169v-1h1v1H295z"/>
	<path class="st0" d="M298,168h-1v-4h1V168z M297,171v-1h1v1h3v1h-3v-1H297z M301,171v-2h-3v-1h3v-4h1v7H301z"/>
	<path class="st0" d="M303,169v-1h1v-1h1v1h1v1h-1v1h-1v-1H303z"/>
	<path class="st0" d="M216,180v-1h1v-3h-1v-1h1v-2h1v2h1v-2h1v2h1v1h-1v3h1v1h-1v2h-1v-2h-1v2h-1v-2H216z M219,179v-3h-1v3H219z"/>
	<path class="st0" d="M226,177h-4v-4h5v1h-4v2h3V177z M223,181h-1v-2h1V181z M226,182h-3v-1h3V182z M226,181v-4h1v4H226z"/>
	<path class="st0" d="M232,181v-4h-1v1h-1v1h-1v2h-1v-7h1v4h1v-1h1v-1h1v-2h1v7H232z M232,174h-3v-1h3V174z M232,182h-3v-1h3V182z"
		/>
	<path class="st0" d="M238,181v-4h-1v1h-1v1h-1v2h-1v-7h1v4h1v-1h1v-1h1v-2h1v7H238z M238,174h-3v-1h3V174z M238,182h-3v-1h3V182z"
		/>
	<path class="st0" d="M220,192v2h-1v-2h-3v-3h1v2h2v-4h-1v2h-1v-2h1v-2h2v6h1v1H220z"/>
	<path class="st0" d="M222,193v-1h1v-1h1v1h1v1h-1v1h-1v-1H222z"/>
	<path class="st0" d="M226,186v-1h5v2h-1v1h-1v-1h1v-1H226z M226,193v-1h1v1h3v1h-3v-1H226z M227,190v-1h1v-1h1v1h1v1h1v3h-1v-3H227
		z"/>
	<path class="st0" d="M232,187v-1h1v1h1v1h-1v-1H232z M232,192v-1h1v1H232z M234,186h-1v-1h1V186z M233,191v-1h1v1H233z M234,187v-1
		h1v1H234z M234,190v-1h1v1H234z M234,193v-1h1v1h1v1h-1v-1H234z M235,189v-1h1v1H235z M236,192h-1v-1h1V192z M236,188v-1h1v1H236z
		 M236,193v-1h1v1H236z"/>
</g>
<g>
	<polygon class="st0" points="153,84 154,84 155,84 156,84 157,84 158,84 159,84 160,84 161,84 162,84 163,84 163,83 162,83 161,83 
		160,83 159,83 158,83 157,83 156,83 155,83 154,83 153,83 152,83 151,83 151,84 152,84 	"/>
	<polygon class="st0" points="148,85 149,85 150,85 151,85 151,84 150,84 149,84 148,84 147,84 146,84 146,85 147,85 	"/>
	<polygon class="st1" points="155,84 154,84 153,84 153,85 153,86 153,87 153,88 153,89 153,90 153,91 154,91 154,92 154,93 154,94 
		154,95 154,96 154,97 154,98 154,99 154,100 154,101 154,102 154,103 154,104 155,104 155,105 155,106 155,107 155,108 155,109 
		155,110 155,111 155,112 155,113 155,114 155,115 155,116 155,117 155,118 156,118 156,119 156,120 156,121 156,122 156,123 
		156,124 156,125 156,126 156,127 156,128 157,128 157,127 157,126 157,125 157,124 157,123 157,122 157,121 157,120 157,119 
		157,118 157,117 157,116 157,115 157,114 157,113 157,112 157,111 157,110 157,109 157,108 157,107 157,106 157,105 157,104 
		157,103 157,102 157,101 157,100 157,99 157,98 157,97 157,96 157,95 157,94 157,93 157,92 157,91 157,90 157,89 157,88 157,87 
		157,86 157,85 157,84 156,84 	"/>
	<rect x="155" y="84" class="st2" width="1" height="20"/>
	<rect x="154" y="84" class="st2" width="1" height="7"/>
	<rect x="156" y="84" class="st2" width="1" height="34"/>
	<polygon class="st0" points="164,85 165,85 166,85 167,85 168,85 168,84 167,84 166,84 165,84 164,84 163,84 163,85 	"/>
	<polygon class="st0" points="145,86 146,86 146,85 145,85 144,85 143,85 143,86 144,86 	"/>
	<polygon class="st0" points="169,86 170,86 171,86 171,85 170,85 169,85 168,85 168,86 	"/>
	<polygon class="st0" points="142,87 143,87 143,86 142,86 141,86 140,86 140,87 141,87 	"/>
	<polygon class="st0" points="172,87 173,87 174,87 174,86 173,86 172,86 171,86 171,87 	"/>
	<polygon class="st0" points="140,88 140,87 139,87 138,87 138,88 139,88 	"/>
	<polygon class="st0" points="175,88 176,88 176,87 175,87 174,87 174,88 	"/>
	<polygon class="st0" points="138,89 138,88 137,88 136,88 136,89 137,89 	"/>
	<polygon class="st0" points="177,89 178,89 178,88 177,88 176,88 176,89 	"/>
	<polygon class="st0" points="136,90 136,89 135,89 134,89 134,90 135,90 	"/>
	<polygon class="st3" points="137,89 137,90 137,91 138,91 138,92 138,93 139,93 139,94 139,95 140,95 140,96 140,97 141,97 141,98 
		141,99 142,99 142,100 142,101 143,101 143,102 143,103 144,103 144,104 144,105 145,105 145,106 145,107 146,107 146,108 146,109 
		147,109 147,110 147,111 148,111 148,112 148,113 149,113 149,114 149,115 150,115 150,116 150,117 151,117 151,118 151,119 
		152,119 152,120 152,121 153,121 153,122 153,123 154,123 154,124 154,125 155,125 155,126 155,127 156,127 156,126 156,125 
		156,124 156,123 156,122 156,121 156,120 156,119 156,118 155,118 155,117 155,116 155,115 155,114 155,113 155,112 155,111 
		155,110 155,109 155,108 155,107 155,106 155,105 155,104 154,104 154,103 154,102 154,101 154,100 154,99 154,98 154,97 154,96 
		154,95 154,94 154,93 154,92 154,91 153,91 153,90 153,89 153,88 153,87 153,86 153,85 153,84 152,84 151,84 151,85 150,85 149,85 
		148,85 147,85 146,85 146,86 145,86 144,86 143,86 143,87 142,87 141,87 140,87 140,88 139,88 138,88 138,89 	"/>
	<polygon class="st0" points="179,90 180,90 180,89 179,89 178,89 178,90 	"/>
	<rect x="133" y="90" class="st0" width="1" height="1"/>
	<rect x="180" y="90" class="st0" width="1" height="1"/>
	<polygon class="st0" points="133,92 133,91 132,91 131,91 131,92 132,92 	"/>
	<polygon class="st0" points="182,92 183,92 183,91 182,91 181,91 181,92 	"/>
	<rect x="130" y="92" class="st0" width="1" height="1"/>
	<rect x="183" y="92" class="st0" width="1" height="1"/>
	<rect x="129" y="93" class="st0" width="1" height="1"/>
	<rect x="184" y="93" class="st0" width="1" height="1"/>
	<polygon class="st0" points="129,95 129,94 128,94 127,94 127,95 128,95 	"/>
	<polygon class="st0" points="186,95 187,95 187,94 186,94 185,94 185,95 	"/>
	<rect x="126" y="95" class="st0" width="1" height="1"/>
	<rect x="187" y="95" class="st0" width="1" height="1"/>
	<rect x="125" y="96" class="st0" width="1" height="1"/>
	<rect x="188" y="96" class="st0" width="1" height="1"/>
	<rect x="124" y="97" class="st0" width="1" height="1"/>
	<rect x="189" y="97" class="st0" width="1" height="1"/>
	<polygon class="st0" points="124,99 124,98 123,98 123,99 123,100 124,100 	"/>
	<polygon class="st0" points="190,100 191,100 191,99 191,98 190,98 190,99 	"/>
	<rect x="122" y="100" class="st0" width="1" height="1"/>
	<rect x="191" y="100" class="st0" width="1" height="1"/>
	<rect x="121" y="101" class="st0" width="1" height="1"/>
	<rect x="192" y="101" class="st0" width="1" height="1"/>
	<polygon class="st0" points="121,103 121,102 120,102 120,103 120,104 121,104 	"/>
	<polygon class="st0" points="193,104 194,104 194,103 194,102 193,102 193,103 	"/>
	<rect x="119" y="104" class="st0" width="1" height="1"/>
	<rect x="194" y="104" class="st0" width="1" height="1"/>
	<polygon class="st0" points="119,106 119,105 118,105 118,106 118,107 119,107 	"/>
	<polygon class="st0" points="195,107 196,107 196,106 196,105 195,105 195,106 	"/>
	<polygon class="st0" points="118,108 118,107 117,107 117,108 117,109 118,109 	"/>
	<polygon class="st0" points="196,109 197,109 197,108 197,107 196,107 196,108 	"/>
	<polygon class="st0" points="117,110 117,109 116,109 116,110 116,111 117,111 	"/>
	<polygon class="st0" points="197,111 198,111 198,110 198,109 197,109 197,110 	"/>
	<polygon class="st0" points="198,113 198,114 199,114 199,113 199,112 199,111 198,111 198,112 	"/>
	<polygon class="st0" points="116,113 116,112 116,111 115,111 115,112 115,113 115,114 116,114 	"/>
	<polygon class="st0" points="199,116 199,117 200,117 200,116 200,115 200,114 199,114 199,115 	"/>
	<polygon class="st0" points="115,116 115,115 115,114 114,114 114,115 114,116 114,117 115,117 	"/>
	<polygon class="st0" points="200,119 200,120 200,121 200,122 201,122 201,121 201,120 201,119 201,118 201,117 200,117 200,118 	
		"/>
	<polygon class="st0" points="114,121 114,120 114,119 114,118 114,117 113,117 113,118 113,119 113,120 113,121 113,122 114,122 	
		"/>
	<polygon class="st0" points="201,122 201,123 201,124 201,125 201,126 201,127 201,128 201,129 201,130 201,131 201,132 201,133 
		201,134 202,134 202,133 202,132 202,131 202,130 202,129 202,128 202,127 202,126 202,125 202,124 202,123 202,122 	"/>
	<rect x="156" y="128" class="st4" width="1" height="1"/>
	<polygon class="st0" points="113,132 113,131 113,130 113,129 113,128 113,127 113,126 113,125 113,124 113,123 113,122 112,122 
		112,123 112,124 112,125 112,126 112,127 112,128 112,129 112,130 112,131 112,132 112,133 112,134 113,134 113,133 	"/>
	<polygon class="st5" points="201,132 201,131 201,130 201,129 201,128 201,127 201,126 201,125 201,124 201,123 201,122 200,122 
		200,121 200,120 200,119 200,118 200,117 199,117 199,116 199,115 199,114 198,114 198,113 198,112 198,111 197,111 197,110 
		197,109 196,109 196,108 196,107 195,107 195,106 195,105 194,105 194,104 193,104 193,103 193,102 192,102 192,101 191,101 
		191,100 190,100 190,99 190,98 189,98 189,97 188,97 188,96 187,96 187,95 186,95 185,95 185,94 184,94 184,93 183,93 183,92 
		182,92 181,92 181,91 180,91 180,90 179,90 178,90 178,89 177,89 176,89 176,88 175,88 174,88 174,87 173,87 172,87 171,87 171,86 
		170,86 169,86 168,86 168,85 167,85 166,85 165,85 164,85 163,85 163,84 162,84 161,84 160,84 159,84 158,84 157,84 157,85 157,86 
		157,87 157,88 157,89 157,90 157,91 157,92 157,93 157,94 157,95 157,96 157,97 157,98 157,99 157,100 157,101 157,102 157,103 
		157,104 157,105 157,106 157,107 157,108 157,109 157,110 157,111 157,112 157,113 157,114 157,115 157,116 157,117 157,118 
		157,119 157,120 157,121 157,122 157,123 157,124 157,125 157,126 157,127 157,128 157,129 158,129 159,129 160,129 160,130 
		161,130 162,130 163,130 163,131 164,131 165,131 166,131 166,132 167,132 168,132 169,132 169,133 170,133 171,133 172,133 
		172,134 173,134 174,134 175,134 175,135 176,135 177,135 178,135 178,136 179,136 180,136 181,136 181,137 182,137 183,137 
		184,137 184,138 185,138 186,138 187,138 187,139 188,139 189,139 190,139 190,140 191,140 192,140 193,140 193,141 194,141 
		195,141 196,141 196,142 197,142 198,142 199,142 199,141 199,140 199,139 200,139 200,138 200,137 200,136 200,135 200,134 
		201,134 201,133 	"/>
	<polygon class="st0" points="200,135 200,136 200,137 200,138 200,139 201,139 201,138 201,137 201,136 201,135 201,134 200,134 	
		"/>
	<polygon class="st0" points="114,137 114,136 114,135 114,134 113,134 113,135 113,136 113,137 113,138 113,139 114,139 114,138 	
		"/>
	<polygon class="st0" points="199,140 199,141 199,142 200,142 200,141 200,140 200,139 199,139 	"/>
	<polygon class="st0" points="115,140 115,139 114,139 114,140 114,141 114,142 115,142 115,141 	"/>
	<polygon class="st0" points="198,143 198,144 198,145 199,145 199,144 199,143 199,142 198,142 	"/>
	<polygon class="st0" points="116,143 116,142 115,142 115,143 115,144 115,145 116,145 116,144 	"/>
	<polygon class="st4" points="198,143 198,142 197,142 196,142 196,141 195,141 194,141 193,141 193,140 192,140 191,140 190,140 
		190,139 189,139 188,139 187,139 187,138 186,138 185,138 184,138 184,137 183,137 182,137 181,137 181,136 180,136 179,136 
		178,136 178,135 177,135 176,135 175,135 175,134 174,134 173,134 172,134 172,133 171,133 170,133 169,133 169,132 168,132 
		167,132 166,132 166,131 165,131 164,131 163,131 163,130 162,130 161,130 160,130 160,129 159,129 158,129 157,129 157,130 
		158,130 159,130 159,131 160,131 160,132 161,132 162,132 162,133 163,133 164,133 164,134 165,134 165,135 166,135 167,135 
		167,136 168,136 168,137 169,137 170,137 170,138 171,138 171,139 172,139 173,139 173,140 174,140 174,141 175,141 176,141 
		176,142 177,142 178,142 178,143 179,143 179,144 180,144 181,144 181,145 182,145 182,146 183,146 184,146 184,147 185,147 
		185,148 186,148 187,148 187,149 188,149 189,149 189,150 190,150 190,151 191,151 192,151 192,152 193,152 194,152 194,151 
		195,151 195,150 195,149 196,149 196,148 196,147 197,147 197,146 197,145 198,145 198,144 	"/>
	<polygon class="st0" points="117,145 116,145 116,146 116,147 117,147 117,146 	"/>
	<polygon class="st0" points="197,146 197,147 198,147 198,146 198,145 197,145 	"/>
	<polygon class="st0" points="118,147 117,147 117,148 117,149 118,149 118,148 	"/>
	<polygon class="st0" points="196,148 196,149 197,149 197,148 197,147 196,147 	"/>
	<polygon class="st0" points="119,149 118,149 118,150 118,151 119,151 119,150 	"/>
	<polygon class="st0" points="195,150 195,151 196,151 196,150 196,149 195,149 	"/>
	<rect x="119" y="151" class="st0" width="1" height="1"/>
	<rect x="194" y="151" class="st0" width="1" height="1"/>
	<polygon class="st0" points="121,152 120,152 120,153 120,154 121,154 121,153 	"/>
	<polygon class="st6" points="192,152 192,151 191,151 190,151 190,150 189,150 189,149 188,149 187,149 187,148 186,148 185,148 
		185,147 184,147 184,146 183,146 182,146 182,145 181,145 181,144 180,144 179,144 179,143 178,143 178,142 177,142 176,142 
		176,141 175,141 174,141 174,140 173,140 173,139 172,139 171,139 171,138 170,138 170,137 169,137 168,137 168,136 167,136 
		167,135 166,135 165,135 165,134 164,134 164,133 163,133 162,133 162,132 161,132 160,132 160,131 159,131 159,130 158,130 
		157,130 157,129 156,129 156,128 156,127 155,127 155,126 155,125 154,125 154,124 154,123 153,123 153,122 153,121 152,121 
		152,120 152,119 151,119 151,118 151,117 150,117 150,116 150,115 149,115 149,114 149,113 148,113 148,112 148,111 147,111 
		147,110 147,109 146,109 146,108 146,107 145,107 145,106 145,105 144,105 144,104 144,103 143,103 143,102 143,101 142,101 
		142,100 142,99 141,99 141,98 141,97 140,97 140,96 140,95 139,95 139,94 139,93 138,93 138,92 138,91 137,91 137,90 137,89 
		136,89 136,90 135,90 134,90 134,91 133,91 133,92 132,92 131,92 131,93 130,93 130,94 129,94 129,95 128,95 127,95 127,96 126,96 
		126,97 125,97 125,98 124,98 124,99 124,100 123,100 123,101 122,101 122,102 121,102 121,103 121,104 120,104 120,105 119,105 
		119,106 119,107 118,107 118,108 118,109 117,109 117,110 117,111 116,111 116,112 116,113 116,114 115,114 115,115 115,116 
		115,117 114,117 114,118 114,119 114,120 114,121 114,122 113,122 113,123 113,124 113,125 113,126 113,127 113,128 113,129 
		113,130 113,131 113,132 113,133 113,134 114,134 114,135 114,136 114,137 114,138 114,139 115,139 115,140 115,141 115,142 
		116,142 116,143 116,144 116,145 117,145 117,146 117,147 118,147 118,148 118,149 119,149 119,150 119,151 120,151 120,152 
		121,152 121,153 121,154 122,154 122,155 123,155 123,156 124,156 124,157 124,158 125,158 125,159 126,159 126,160 127,160 
		127,161 128,161 129,161 129,162 130,162 130,163 131,163 131,164 132,164 133,164 133,165 134,165 134,166 135,166 136,166 
		136,167 137,167 138,167 138,168 139,168 140,168 140,169 141,169 142,169 143,169 143,170 144,170 145,170 146,170 146,171 
		147,171 148,171 149,171 150,171 151,171 151,172 152,172 153,172 154,172 155,172 156,172 157,172 158,172 159,172 160,172 
		161,172 162,172 163,172 163,171 164,171 165,171 166,171 167,171 168,171 168,170 169,170 170,170 171,170 171,169 172,169 
		173,169 174,169 174,168 175,168 176,168 176,167 177,167 178,167 178,166 179,166 180,166 180,165 181,165 181,164 182,164 
		183,164 183,163 184,163 184,162 185,162 185,161 186,161 187,161 187,160 188,160 188,159 189,159 189,158 190,158 190,157 
		190,156 191,156 191,155 192,155 192,154 193,154 193,153 193,152 	"/>
	<polygon class="st0" points="193,153 193,154 194,154 194,153 194,152 193,152 	"/>
	<rect x="121" y="154" class="st0" width="1" height="1"/>
	<rect x="192" y="154" class="st0" width="1" height="1"/>
	<rect x="122" y="155" class="st0" width="1" height="1"/>
	<rect x="191" y="155" class="st0" width="1" height="1"/>
	<polygon class="st0" points="124,156 123,156 123,157 123,158 124,158 124,157 	"/>
	<polygon class="st0" points="190,157 190,158 191,158 191,157 191,156 190,156 	"/>
	<rect x="124" y="158" class="st0" width="1" height="1"/>
	<rect x="189" y="158" class="st0" width="1" height="1"/>
	<rect x="125" y="159" class="st0" width="1" height="1"/>
	<rect x="188" y="159" class="st0" width="1" height="1"/>
	<rect x="126" y="160" class="st0" width="1" height="1"/>
	<rect x="187" y="160" class="st0" width="1" height="1"/>
	<polygon class="st0" points="128,161 127,161 127,162 128,162 129,162 129,161 	"/>
	<polygon class="st0" points="185,161 185,162 186,162 187,162 187,161 186,161 	"/>
	<rect x="129" y="162" class="st0" width="1" height="1"/>
	<rect x="184" y="162" class="st0" width="1" height="1"/>
	<rect x="130" y="163" class="st0" width="1" height="1"/>
	<rect x="183" y="163" class="st0" width="1" height="1"/>
	<polygon class="st0" points="132,164 131,164 131,165 132,165 133,165 133,164 	"/>
	<polygon class="st0" points="181,164 181,165 182,165 183,165 183,164 182,164 	"/>
	<rect x="133" y="165" class="st0" width="1" height="1"/>
	<rect x="180" y="165" class="st0" width="1" height="1"/>
	<polygon class="st0" points="135,166 134,166 134,167 135,167 136,167 136,166 	"/>
	<polygon class="st0" points="178,166 178,167 179,167 180,167 180,166 179,166 	"/>
	<polygon class="st0" points="137,167 136,167 136,168 137,168 138,168 138,167 	"/>
	<polygon class="st0" points="176,167 176,168 177,168 178,168 178,167 177,167 	"/>
	<polygon class="st0" points="139,168 138,168 138,169 139,169 140,169 140,168 	"/>
	<polygon class="st0" points="174,168 174,169 175,169 176,169 176,168 175,168 	"/>
	<polygon class="st0" points="142,169 141,169 140,169 140,170 141,170 142,170 143,170 143,169 	"/>
	<polygon class="st0" points="172,169 171,169 171,170 172,170 173,170 174,170 174,169 173,169 	"/>
	<polygon class="st0" points="145,170 144,170 143,170 143,171 144,171 145,171 146,171 146,170 	"/>
	<polygon class="st0" points="169,170 168,170 168,171 169,171 170,171 171,171 171,170 170,170 	"/>
	<polygon class="st0" points="150,171 149,171 148,171 147,171 146,171 146,172 147,172 148,172 149,172 150,172 151,172 151,171 	
		"/>
	<polygon class="st0" points="166,171 165,171 164,171 163,171 163,172 164,172 165,172 166,172 167,172 168,172 168,171 167,171 	
		"/>
	<polygon class="st0" points="161,172 160,172 159,172 158,172 157,172 156,172 155,172 154,172 153,172 152,172 151,172 151,173 
		152,173 153,173 154,173 155,173 156,173 157,173 158,173 159,173 160,173 161,173 162,173 163,173 163,172 162,172 	"/>
</g>
<g>
	<rect x="195" y="148" class="st7" width="1" height="1"/>
	<rect x="194" y="147" class="st7" width="1" height="1"/>
	<rect x="193" y="146" class="st7" width="1" height="1"/>
	<rect x="192" y="145" class="st7" width="1" height="1"/>
	<rect x="196" y="149" class="st7" width="1" height="1"/>
	<rect x="197" y="150" class="st7" width="1" height="1"/>
	<rect x="198" y="151" class="st7" width="1" height="1"/>
	<rect x="199" y="152" class="st7" width="1" height="1"/>
	<rect x="200" y="153" class="st7" width="1" height="1"/>
	<rect x="201" y="154" class="st7" width="1" height="1"/>
	<rect x="202" y="154" class="st7" width="1" height="1"/>
	<rect x="203" y="154" class="st7" width="1" height="1"/>
	<rect x="204" y="154" class="st7" width="1" height="1"/>
	<rect x="205" y="154" class="st7" width="1" height="1"/>
	<rect x="206" y="154" class="st7" width="1" height="1"/>
	<rect x="207" y="154" class="st7" width="1" height="1"/>
	<rect x="207" y="154" class="st7" width="1" height="1"/>
	<rect x="208" y="154" class="st7" width="1" height="1"/>
	<rect x="209" y="154" class="st7" width="1" height="1"/>
	<rect x="210" y="154" class="st7" width="1" height="1"/>
</g>
<g>
	<g>
		<path class="st0" d="M14,128H9v-9h1v8h4V128z"/>
		<path class="st0" d="M16,127h-1v-5h1V127z M18,128h-2v-1h2V128z M20,122v6h-1v-1h-1v-1h1v-4H20z"/>
		<path class="st0" d="M22,127h-1v-4h1V127z M25,123h-3v-1h3V123z M25,128h-3v-1h3V128z M25,123h1v1h-1V123z M25,127v-1h1v1H25z"/>
		<path class="st0" d="M28,125v3h-1v-9h1v5h1v1h1v1h-1v-1H28z M29,124v-1h1v1H29z M30,123v-1h1v1H30z M31,127h-1v-1h1V127z M31,127
			h1v1h-1V127z"/>
		<path class="st0" d="M34,126h-1v-4h1V126z M33,129v-1h1v1h3v1h-3v-1H33z M37,129v-2h-3v-1h3v-4h1v7H37z"/>
		<path class="st0" d="M41,120v-1h5v2h-1v2h-1v2h-1v3h-1v-3h1v-2h1v-2h1v-1H41z"/>
		<path class="st0" d="M48,120v2h-1v-2H48z M52,128h-5v-2h1v1h4V128z M51,120h-3v-1h3V120z M48,126v-1h1v1H48z M49,125v-1h1v1H49z
			 M50,124v-1h1v1H50z M51,123v-3h1v3H51z"/>
		<path class="st0" d="M53,120v-1h5v2h-1v2h-1v2h-1v3h-1v-3h1v-2h1v-2h1v-1H53z"/>
		<path class="st0" d="M63,124v4h-1v-9h4v1h1v3h-1v1H63z M63,123h3v-3h-3V123z"/>
		<path class="st0" d="M69,124v4h-1v-6h1v1h1v1H69z M72,123h-2v-1h2V123z M72,123h1v1h-1V123z"/>
		<path class="st0" d="M75,127h-1v-4h1V127z M78,123h-3v-1h3V123z M78,128h-3v-1h3V128z M78,127v-4h1v4H78z"/>
		<path class="st0" d="M81,127h-1v-4h1V127z M84,123h-3v-1h3V123z M84,128h-3v-1h3V128z M84,127v-4h1v4H84z"/>
		<path class="st0" d="M86,124v-1h2v-3h1v3h2v1h-2v4h-1v-4H86z M91,120h-2v-1h2V120z"/>
	</g>
	<g>
		<path class="st0" d="M68,138v-1h1v-3h-1v-1h1v-2h1v2h1v-2h1v2h1v1h-1v3h1v1h-1v2h-1v-2h-1v2h-1v-2H68z M71,137v-3h-1v3H71z"/>
		<path class="st0" d="M74,132v-1h5v2h-1v2h-1v2h-1v3h-1v-3h1v-2h1v-2h1v-1H74z"/>
		<path class="st0" d="M81,132v2h-1v-2H81z M85,140h-5v-2h1v1h4V140z M84,132h-3v-1h3V132z M81,138v-1h1v1H81z M82,137v-1h1v1H82z
			 M83,136v-1h1v1H83z M84,135v-3h1v3H84z"/>
		<path class="st0" d="M86,132v-1h5v2h-1v2h-1v2h-1v3h-1v-3h1v-2h1v-2h1v-1H86z"/>
	</g>
	<g>
		<path class="st0" d="M71,151h-1v-6h1v1h3v1h-3V151z M71,145v-1h1v1H71z M74,152h-3v-1h3V152z M74,144h-2v-1h2V144z M74,151v-4h1v4
			H74z"/>
		<path class="st0" d="M76,151v-1h1v-1h1v1h1v1h-1v1h-1v-1H76z"/>
		<path class="st0" d="M81,144v2h-1v-2H81z M85,152h-5v-2h1v1h4V152z M84,144h-3v-1h3V144z M81,150v-1h1v1H81z M82,149v-1h1v1H82z
			 M83,148v-1h1v1H83z M84,147v-3h1v3H84z"/>
		<path class="st0" d="M86,145v-1h1v1h1v1h-1v-1H86z M86,150v-1h1v1H86z M88,144h-1v-1h1V144z M87,149v-1h1v1H87z M88,145v-1h1v1H88
			z M88,148v-1h1v1H88z M88,151v-1h1v1h1v1h-1v-1H88z M89,147v-1h1v1H89z M90,150h-1v-1h1V150z M90,146v-1h1v1H90z M90,151v-1h1v1
			H90z"/>
	</g>
</g>
<g>
	<g>
		<path class="st0" d="M9,79v-1h5v2h-1v2h-1v1h-1v2h-1v1h4v1H9v-2h1v-2h1v-1h1v-2h1v-1H9z"/>
		<path class="st0" d="M16,86h-1v-4h1v1h3v-1h1v2h-4V86z M19,82h-3v-1h3V82z M19,87h-3v-1h3V87z M19,86v-1h1v1H19z"/>
		<path class="st0" d="M22,83v4h-1v-6h1v1h1v1H22z M25,82h-2v-1h2V82z M26,82v5h-1v-5H26z"/>
		<path class="st0" d="M31,80v7h-1v-9h1v1h1v1h1v1h-1v-1H31z M35,78v9h-1v-5h-1v-1h1v-3H35z"/>
		<path class="st0" d="M37,86h-1v-5h1V86z M39,87h-2v-1h2V87z M41,81v6h-1v-1h-1v-1h1v-4H41z"/>
		<path class="st0" d="M45,82v5h-1v-5h-1v5h-1v-6h4v1H45z M47,82v5h-1v-5H47z"/>
		<path class="st0" d="M52,87h-4v-9h1v3h3v1h1v4h-1V87z M49,86h3v-4h-3V86z"/>
		<path class="st0" d="M55,86h-1v-4h1v1h3v-1h1v2h-4V86z M58,82h-3v-1h3V82z M58,87h-3v-1h3V87z M58,86v-1h1v1H58z"/>
		<path class="st0" d="M61,83v4h-1v-6h1v1h1v1H61z M64,82h-2v-1h2V82z M64,82h1v1h-1V82z"/>
	</g>
	<g>
		<path class="st0" d="M48,110v-4h-1v1h-1v1h-1v2h-1v-7h1v4h1v-1h1v-1h1v-2h1v7H48z M48,103h-3v-1h3V103z M48,111h-3v-1h3V111z"/>
		<path class="st0" d="M50,110v-1h1v-1h1v1h1v1h-1v1h-1v-1H50z"/>
		<path class="st0" d="M54,103v-1h5v2h-1v2h-1v2h-1v3h-1v-3h1v-2h1v-2h1v-1H54z"/>
		<path class="st0" d="M60,104v-1h1v1h1v1h-1v-1H60z M60,109v-1h1v1H60z M62,103h-1v-1h1V103z M61,108v-1h1v1H61z M62,104v-1h1v1H62
			z M62,107v-1h1v1H62z M62,110v-1h1v1h1v1h-1v-1H62z M63,106v-1h1v1H63z M64,109h-1v-1h1V109z M64,105v-1h1v1H64z M64,110v-1h1v1
			H64z"/>
	</g>
	<g>
		<path class="st0" d="M14,95v4h-1v-9h4v1h1v3h-1v1H14z M14,94h3v-3h-3V94z"/>
		<path class="st0" d="M20,95v4h-1v-6h1v1h1v1H20z M23,94h-2v-1h2V94z M23,94h1v1h-1V94z"/>
		<path class="st0" d="M26,98h-1v-4h1V98z M29,94h-3v-1h3V94z M29,99h-3v-1h3V99z M29,98v-4h1v4H29z"/>
		<path class="st0" d="M32,98h-1v-4h1V98z M35,94h-3v-1h3V94z M35,99h-3v-1h3V99z M35,98v-4h1v4H35z"/>
		<path class="st0" d="M37,95v-1h2v-3h1v3h2v1h-2v4h-1v-4H37z M42,91h-2v-1h2V91z"/>
		<g>
			<path class="st0" d="M48,97v-1h1v-3h-1v-1h1v-2h1v2h1v-2h1v2h1v1h-1v3h1v1h-1v2h-1v-2h-1v2h-1v-2H48z M51,96v-3h-1v3H51z"/>
			<path class="st0" d="M54,91v-1h5v2h-1v2h-1v2h-1v3h-1v-3h1v-2h1v-2h1v-1H54z"/>
			<path class="st0" d="M61,93h-1v-2h1V93z M61,98h-1v-2h1V98z M64,91h-3v-1h3V91z M62,94h-1v-1h1V94z M61,96v-1h1v1H61z M64,99h-3
				v-1h3V99z M63,95h-1v-1h1V95z M63,94v-1h1v1H63z M64,96h-1v-1h1V96z M64,93v-2h1v2H64z M64,98v-2h1v2H64z"/>
		</g>
	</g>
</g>
<g>
	<g>
		<path class="st0" d="M37,177v4h-1v-9h4v1h1v3h-1v1H37z M37,176h3v-3h-3V176z"/>
		<path class="st0" d="M43,180h-1v-8h1V180z M46,181h-3v-1h3V181z M46,180v-8h1v8H46z"/>
		<path class="st0" d="M52,181h-4v-9h4v1h1v3h-1v1h1v3h-1V181z M49,176h3v-3h-3V176z M49,180h3v-3h-3V180z"/>
		<path class="st0" d="M59,181h-5v-9h1v8h4V181z"/>
		<path class="st0" d="M60,181v-1h1v-7h-1v-1h3v1h-1v7h1v1H60z"/>
		<path class="st0" d="M65,180h-1v-7h1V180z M68,173h-3v-1h3V173z M68,181h-3v-1h3V181z M68,173h1v1h-1V173z M68,180v-1h1v1H68z"/>
		<path class="st0" d="M75,176h-1v-3h1V176z M74,180v-1h1v1h3v1h-3v-1H74z M78,173h-3v-1h3V173z M78,177h-3v-1h3V177z M78,173h1v1
			h-1V173z M78,180v-3h1v3H78z"/>
		<path class="st0" d="M85,177v4h-1v-3h-3v3h-1v-4h1v-3h1v3h1v-3h1v3H85z M83,174h-1v-2h1V174z"/>
		<path class="st0" d="M91,181h-5v-9h1v8h4V181z"/>
		<path class="st0" d="M97,181h-5v-9h5v1h-4v3h3v1h-3v3h4V181z"/>
	</g>
	<g>
		<path class="st0" d="M66,191v-1h1v-3h-1v-1h1v-2h1v2h1v-2h1v2h1v1h-1v3h1v1h-1v2h-1v-2h-1v2h-1v-2H66z M69,190v-3h-1v3H69z"/>
		<path class="st0" d="M73,192h-1v-6h1v1h3v1h-3V192z M73,186v-1h1v1H73z M76,193h-3v-1h3V193z M76,185h-2v-1h2V185z M76,192v-4h1v4
			H76z"/>
		<path class="st0" d="M82,185v-1h5v2h-1v2h-1v2h-1v3h-1v-3h1v-2h1v-2h1v-1H82z"/>
		<path class="st0" d="M92,188h-4v-4h5v1h-4v2h3V188z M89,192h-1v-2h1V192z M92,193h-3v-1h3V193z M92,192v-4h1v4H92z"/>
		<path class="st0" d="M94,187v-1h1v1H94z M97,184v9h-1v-7h-1v-1h1v-1H97z"/>
		<path class="st0" d="M74,200h-4v-4h5v1h-4v2h3V200z M71,204h-1v-2h1V204z M74,205h-3v-1h3V205z M74,204v-4h1v4H74z"/>
		<path class="st0" d="M76,197v-1h5v2h-1v2h-1v2h-1v3h-1v-3h1v-2h1v-2h1v-1H76z"/>
		<path class="st0" d="M82,204v-1h1v-1h1v1h1v1h-1v1h-1v-1H82z"/>
		<path class="st0" d="M87,201h-1v-4h1V201z M90,197h-3v-1h3V197z M90,203v-1h-3v-1h3v-4h1v6H90z M87,205v-1h2v1H87z M89,204v-1h1v1
			H89z"/>
		<path class="st0" d="M92,198v-1h1v1h1v1h-1v-1H92z M92,203v-1h1v1H92z M94,197h-1v-1h1V197z M93,202v-1h1v1H93z M94,198v-1h1v1H94
			z M94,201v-1h1v1H94z M94,204v-1h1v1h1v1h-1v-1H94z M95,200v-1h1v1H95z M96,203h-1v-1h1V203z M96,199v-1h1v1H96z M96,204v-1h1v1
			H96z"/>
	</g>
</g>
<g>
	<rect x="184" y="89" class="st7" width="1" height="1"/>
	<rect x="183" y="90" class="st7" width="1" height="1"/>
	<rect x="182" y="91" class="st7" width="1" height="1"/>
	<rect x="181" y="92" class="st7" width="1" height="1"/>
	<rect x="180" y="93" class="st7" width="1" height="1"/>
	<rect x="179" y="94" class="st7" width="1" height="1"/>
	<rect x="178" y="95" class="st7" width="1" height="1"/>
	<rect x="177" y="96" class="st7" width="1" height="1"/>
	<rect x="189" y="84" class="st7" width="1" height="1"/>
	<rect x="188" y="85" class="st7" width="1" height="1"/>
	<rect x="187" y="86" class="st7" width="1" height="1"/>
	<rect x="186" y="87" class="st7" width="1" height="1"/>
	<rect x="185" y="88" class="st7" width="1" height="1"/>
	<rect x="194" y="79" class="st7" width="1" height="1"/>
	<rect x="195" y="78" class="st7" width="1" height="1"/>
	<rect x="196" y="77" class="st7" width="1" height="1"/>
	<rect x="197" y="76" class="st7" width="1" height="1"/>
	<rect x="198" y="75" class="st7" width="1" height="1"/>
	<rect x="193" y="80" class="st7" width="1" height="1"/>
	<rect x="192" y="81" class="st7" width="1" height="1"/>
	<rect x="191" y="82" class="st7" width="1" height="1"/>
	<rect x="190" y="83" class="st7" width="1" height="1"/>
	<rect x="200" y="73" class="st7" width="1" height="1"/>
	<rect x="207" y="73" class="st7" width="1" height="1"/>
	<rect x="208" y="73" class="st7" width="1" height="1"/>
	<rect x="209" y="73" class="st7" width="1" height="1"/>
	<rect x="210" y="73" class="st7" width="1" height="1"/>
	<rect x="206" y="73" class="st7" width="1" height="1"/>
	<rect x="205" y="73" class="st7" width="1" height="1"/>
	<rect x="204" y="73" class="st7" width="1" height="1"/>
	<rect x="203" y="73" class="st7" width="1" height="1"/>
	<rect x="202" y="73" class="st7" width="1" height="1"/>
	<rect x="201" y="73" class="st7" width="1" height="1"/>
	<rect x="199" y="74" class="st7" width="1" height="1"/>
</g>
<g>
	<rect x="151" y="80" class="st7" width="1" height="1"/>
	<rect x="152" y="81" class="st7" width="1" height="1"/>
	<rect x="153" y="82" class="st7" width="1" height="1"/>
	<rect x="154" y="83" class="st7" width="1" height="1"/>
	<rect x="155" y="84" class="st7" width="1" height="1"/>
	<rect x="146" y="75" class="st7" width="1" height="1"/>
	<rect x="147" y="76" class="st7" width="1" height="1"/>
	<rect x="148" y="77" class="st7" width="1" height="1"/>
	<rect x="149" y="78" class="st7" width="1" height="1"/>
	<rect x="150" y="79" class="st7" width="1" height="1"/>
	<rect x="141" y="70" class="st7" width="1" height="1"/>
	<rect x="140" y="69" class="st7" width="1" height="1"/>
	<rect x="142" y="71" class="st7" width="1" height="1"/>
	<rect x="143" y="72" class="st7" width="1" height="1"/>
	<rect x="144" y="73" class="st7" width="1" height="1"/>
	<rect x="145" y="74" class="st7" width="1" height="1"/>
</g>
<g>
	<rect x="121" y="172" class="st7" width="1" height="1"/>
	<rect x="117" y="176" class="st7" width="1" height="1"/>
	<rect x="118" y="175" class="st7" width="1" height="1"/>
	<rect x="119" y="174" class="st7" width="1" height="1"/>
	<rect x="120" y="173" class="st7" width="1" height="1"/>
	<rect x="116" y="176" class="st7" width="1" height="1"/>
	<rect x="115" y="176" class="st7" width="1" height="1"/>
	<rect x="114" y="176" class="st7" width="1" height="1"/>
	<rect x="113" y="176" class="st7" width="1" height="1"/>
	<rect x="112" y="176" class="st7" width="1" height="1"/>
	<rect x="111" y="176" class="st7" width="1" height="1"/>
	<rect x="110" y="176" class="st7" width="1" height="1"/>
	<rect x="109" y="176" class="st7" width="1" height="1"/>
	<rect x="108" y="176" class="st7" width="1" height="1"/>
	<rect x="122" y="171" class="st7" width="1" height="1"/>
	<rect x="123" y="170" class="st7" width="1" height="1"/>
	<rect x="124" y="169" class="st7" width="1" height="1"/>
	<rect x="125" y="168" class="st7" width="1" height="1"/>
	<rect x="126" y="167" class="st7" width="1" height="1"/>
	<rect x="127" y="166" class="st7" width="1" height="1"/>
	<rect x="133" y="160" class="st7" width="1" height="1"/>
	<rect x="134" y="159" class="st7" width="1" height="1"/>
	<rect x="135" y="158" class="st7" width="1" height="1"/>
	<rect x="136" y="157" class="st7" width="1" height="1"/>
	<rect x="137" y="156" class="st7" width="1" height="1"/>
	<rect x="128" y="165" class="st7" width="1" height="1"/>
	<rect x="129" y="164" class="st7" width="1" height="1"/>
	<rect x="130" y="163" class="st7" width="1" height="1"/>
	<rect x="131" y="162" class="st7" width="1" height="1"/>
	<rect x="132" y="161" class="st7" width="1" height="1"/>
	<rect x="138" y="123" class="st7" width="1" height="1"/>
	<rect x="139" y="122" class="st7" width="1" height="1"/>
	<rect x="140" y="121" class="st7" width="1" height="1"/>
	<rect x="141" y="120" class="st7" width="1" height="1"/>
	<rect x="147" y="114" class="st7" width="1" height="1"/>
	<rect x="148" y="113" class="st7" width="1" height="1"/>
	<rect x="149" y="112" class="st7" width="1" height="1"/>
	<rect x="150" y="111" class="st7" width="1" height="1"/>
	<rect x="151" y="110" class="st7" width="1" height="1"/>
	<rect x="142" y="119" class="st7" width="1" height="1"/>
	<rect x="143" y="118" class="st7" width="1" height="1"/>
	<rect x="144" y="117" class="st7" width="1" height="1"/>
	<rect x="145" y="116" class="st7" width="1" height="1"/>
	<rect x="146" y="115" class="st7" width="1" height="1"/>
	<rect x="107" y="176" class="st7" width="1" height="1"/>
	<rect x="106" y="176" class="st7" width="1" height="1"/>
	<rect x="105" y="176" class="st7" width="1" height="1"/>
	<rect x="104" y="176" class="st7" width="1" height="1"/>
	<rect x="103" y="176" class="st7" width="1" height="1"/>
	<rect x="102" y="176" class="st7" width="1" height="1"/>
	<rect x="101" y="176" class="st7" width="1" height="1"/>
</g>
<g>
	<rect x="110" y="69" class="st7" width="1" height="1"/>
	<rect x="109" y="69" class="st7" width="1" height="1"/>
	<rect x="108" y="69" class="st7" width="1" height="1"/>
	<rect x="107" y="69" class="st7" width="1" height="1"/>
	<rect x="106" y="69" class="st7" width="1" height="1"/>
	<rect x="105" y="69" class="st7" width="1" height="1"/>
	<rect x="104" y="69" class="st7" width="1" height="1"/>
	<rect x="103" y="69" class="st7" width="1" height="1"/>
	<rect x="102" y="69" class="st7" width="1" height="1"/>
	<rect x="101" y="69" class="st7" width="1" height="1"/>
	<rect x="130" y="69" class="st7" width="1" height="1"/>
	<rect x="129" y="69" class="st7" width="1" height="1"/>
	<rect x="128" y="69" class="st7" width="1" height="1"/>
	<rect x="127" y="69" class="st7" width="1" height="1"/>
	<rect x="126" y="69" class="st7" width="1" height="1"/>
	<rect x="125" y="69" class="st7" width="1" height="1"/>
	<rect x="124" y="69" class="st7" width="1" height="1"/>
	<rect x="123" y="69" class="st7" width="1" height="1"/>
	<rect x="122" y="69" class="st7" width="1" height="1"/>
	<rect x="121" y="69" class="st7" width="1" height="1"/>
	<rect x="120" y="69" class="st7" width="1" height="1"/>
	<rect x="119" y="69" class="st7" width="1" height="1"/>
	<rect x="118" y="69" class="st7" width="1" height="1"/>
	<rect x="117" y="69" class="st7" width="1" height="1"/>
	<rect x="116" y="69" class="st7" width="1" height="1"/>
	<rect x="115" y="69" class="st7" width="1" height="1"/>
	<rect x="114" y="69" class="st7" width="1" height="1"/>
	<rect x="113" y="69" class="st7" width="1" height="1"/>
	<rect x="112" y="69" class="st7" width="1" height="1"/>
	<rect x="111" y="69" class="st7" width="1" height="1"/>
	<rect x="139" y="69" class="st7" width="1" height="1"/>
	<rect x="138" y="69" class="st7" width="1" height="1"/>
	<rect x="137" y="69" class="st7" width="1" height="1"/>
	<rect x="136" y="69" class="st7" width="1" height="1"/>
	<rect x="135" y="69" class="st7" width="1" height="1"/>
	<rect x="134" y="69" class="st7" width="1" height="1"/>
	<rect x="133" y="69" class="st7" width="1" height="1"/>
	<rect x="132" y="69" class="st7" width="1" height="1"/>
	<rect x="131" y="69" class="st7" width="1" height="1"/>
</g>
<g>
	<rect x="89" y="94" class="st7" width="1" height="1"/>
	<rect x="88" y="94" class="st7" width="1" height="1"/>
	<rect x="87" y="94" class="st7" width="1" height="1"/>
	<rect x="86" y="94" class="st7" width="1" height="1"/>
	<rect x="85" y="94" class="st7" width="1" height="1"/>
	<rect x="84" y="94" class="st7" width="1" height="1"/>
	<rect x="83" y="94" class="st7" width="1" height="1"/>
	<rect x="82" y="94" class="st7" width="1" height="1"/>
	<rect x="81" y="94" class="st7" width="1" height="1"/>
	<rect x="80" y="94" class="st7" width="1" height="1"/>
	<rect x="79" y="94" class="st7" width="1" height="1"/>
	<rect x="78" y="94" class="st7" width="1" height="1"/>
	<rect x="77" y="94" class="st7" width="1" height="1"/>
	<rect x="76" y="94" class="st7" width="1" height="1"/>
	<rect x="75" y="94" class="st7" width="1" height="1"/>
	<rect x="74" y="94" class="st7" width="1" height="1"/>
	<rect x="73" y="94" class="st7" width="1" height="1"/>
	<rect x="72" y="94" class="st7" width="1" height="1"/>
	<rect x="71" y="94" class="st7" width="1" height="1"/>
	<rect x="70" y="94" class="st7" width="1" height="1"/>
	<rect x="69" y="94" class="st7" width="1" height="1"/>
	<rect x="109" y="94" class="st7" width="1" height="1"/>
	<rect x="108" y="94" class="st7" width="1" height="1"/>
	<rect x="107" y="94" class="st7" width="1" height="1"/>
	<rect x="106" y="94" class="st7" width="1" height="1"/>
	<rect x="105" y="94" class="st7" width="1" height="1"/>
	<rect x="104" y="94" class="st7" width="1" height="1"/>
	<rect x="103" y="94" class="st7" width="1" height="1"/>
	<rect x="102" y="94" class="st7" width="1" height="1"/>
	<rect x="101" y="94" class="st7" width="1" height="1"/>
	<rect x="100" y="94" class="st7" width="1" height="1"/>
	<rect x="99" y="94" class="st7" width="1" height="1"/>
	<rect x="98" y="94" class="st7" width="1" height="1"/>
	<rect x="97" y="94" class="st7" width="1" height="1"/>
	<rect x="96" y="94" class="st7" width="1" height="1"/>
	<rect x="95" y="94" class="st7" width="1" height="1"/>
	<rect x="94" y="94" class="st7" width="1" height="1"/>
	<rect x="93" y="94" class="st7" width="1" height="1"/>
	<rect x="92" y="94" class="st7" width="1" height="1"/>
	<rect x="91" y="94" class="st7" width="1" height="1"/>
	<rect x="90" y="94" class="st7" width="1" height="1"/>
	<rect x="118" y="94" class="st7" width="1" height="1"/>
	<rect x="117" y="94" class="st7" width="1" height="1"/>
	<rect x="116" y="94" class="st7" width="1" height="1"/>
	<rect x="115" y="94" class="st7" width="1" height="1"/>
	<rect x="114" y="94" class="st7" width="1" height="1"/>
	<rect x="113" y="94" class="st7" width="1" height="1"/>
	<rect x="112" y="94" class="st7" width="1" height="1"/>
	<rect x="111" y="94" class="st7" width="1" height="1"/>
	<rect x="110" y="94" class="st7" width="1" height="1"/>
	<rect x="138" y="94" class="st7" width="1" height="1"/>
	<rect x="137" y="94" class="st7" width="1" height="1"/>
	<rect x="136" y="94" class="st7" width="1" height="1"/>
	<rect x="135" y="94" class="st7" width="1" height="1"/>
	<rect x="134" y="94" class="st7" width="1" height="1"/>
	<rect x="133" y="94" class="st7" width="1" height="1"/>
	<rect x="132" y="94" class="st7" width="1" height="1"/>
	<rect x="131" y="94" class="st7" width="1" height="1"/>
	<rect x="130" y="94" class="st7" width="1" height="1"/>
	<rect x="129" y="94" class="st7" width="1" height="1"/>
	<rect x="128" y="94" class="st7" width="1" height="1"/>
	<rect x="127" y="94" class="st7" width="1" height="1"/>
	<rect x="126" y="94" class="st7" width="1" height="1"/>
	<rect x="125" y="94" class="st7" width="1" height="1"/>
	<rect x="124" y="94" class="st7" width="1" height="1"/>
	<rect x="123" y="94" class="st7" width="1" height="1"/>
	<rect x="122" y="94" class="st7" width="1" height="1"/>
	<rect x="121" y="94" class="st7" width="1" height="1"/>
	<rect x="120" y="94" class="st7" width="1" height="1"/>
	<rect x="119" y="94" class="st7" width="1" height="1"/>
	<rect x="153" y="94" class="st7" width="1" height="1"/>
	<rect x="152" y="94" class="st7" width="1" height="1"/>
	<rect x="151" y="94" class="st7" width="1" height="1"/>
	<rect x="150" y="94" class="st7" width="1" height="1"/>
	<rect x="149" y="94" class="st7" width="1" height="1"/>
	<rect x="148" y="94" class="st7" width="1" height="1"/>
	<rect x="147" y="94" class="st7" width="1" height="1"/>
	<rect x="146" y="94" class="st7" width="1" height="1"/>
	<rect x="145" y="94" class="st7" width="1" height="1"/>
	<rect x="144" y="94" class="st7" width="1" height="1"/>
	<rect x="143" y="94" class="st7" width="1" height="1"/>
	<rect x="142" y="94" class="st7" width="1" height="1"/>
	<rect x="141" y="94" class="st7" width="1" height="1"/>
	<rect x="140" y="94" class="st7" width="1" height="1"/>
	<rect x="139" y="94" class="st7" width="1" height="1"/>
</g>
<g>
	<rect x="120" y="123" class="st7" width="1" height="1"/>
	<rect x="119" y="123" class="st7" width="1" height="1"/>
	<rect x="118" y="123" class="st7" width="1" height="1"/>
	<rect x="117" y="123" class="st7" width="1" height="1"/>
	<rect x="116" y="123" class="st7" width="1" height="1"/>
	<rect x="115" y="123" class="st7" width="1" height="1"/>
	<rect x="114" y="123" class="st7" width="1" height="1"/>
	<rect x="113" y="123" class="st7" width="1" height="1"/>
	<rect x="112" y="123" class="st7" width="1" height="1"/>
	<rect x="111" y="123" class="st7" width="1" height="1"/>
	<rect x="110" y="123" class="st7" width="1" height="1"/>
	<rect x="109" y="123" class="st7" width="1" height="1"/>
	<rect x="108" y="123" class="st7" width="1" height="1"/>
	<rect x="107" y="123" class="st7" width="1" height="1"/>
	<rect x="106" y="123" class="st7" width="1" height="1"/>
	<rect x="105" y="123" class="st7" width="1" height="1"/>
	<rect x="104" y="123" class="st7" width="1" height="1"/>
	<rect x="103" y="123" class="st7" width="1" height="1"/>
	<rect x="102" y="123" class="st7" width="1" height="1"/>
	<rect x="101" y="123" class="st7" width="1" height="1"/>
	<rect x="97" y="123" class="st7" width="1" height="1"/>
	<rect x="96" y="123" class="st7" width="1" height="1"/>
	<rect x="95" y="123" class="st7" width="1" height="1"/>
	<rect x="100" y="123" class="st7" width="1" height="1"/>
	<rect x="99" y="123" class="st7" width="1" height="1"/>
	<rect x="98" y="123" class="st7" width="1" height="1"/>
	<rect x="137" y="123" class="st7" width="1" height="1"/>
	<rect x="136" y="123" class="st7" width="1" height="1"/>
	<rect x="135" y="123" class="st7" width="1" height="1"/>
	<rect x="134" y="123" class="st7" width="1" height="1"/>
	<rect x="133" y="123" class="st7" width="1" height="1"/>
	<rect x="132" y="123" class="st7" width="1" height="1"/>
	<rect x="131" y="123" class="st7" width="1" height="1"/>
	<rect x="130" y="123" class="st7" width="1" height="1"/>
	<rect x="129" y="123" class="st7" width="1" height="1"/>
	<rect x="128" y="123" class="st7" width="1" height="1"/>
	<rect x="127" y="123" class="st7" width="1" height="1"/>
	<rect x="126" y="123" class="st7" width="1" height="1"/>
	<rect x="125" y="123" class="st7" width="1" height="1"/>
	<rect x="124" y="123" class="st7" width="1" height="1"/>
	<rect x="123" y="123" class="st7" width="1" height="1"/>
	<rect x="122" y="123" class="st7" width="1" height="1"/>
	<rect x="121" y="123" class="st7" width="1" height="1"/>
</g>
<g>
	<g>
		<g>
			<path class="st0" d="M76,72v-1h1v-3h-1v-1h1v-2h1v2h1v-2h1v2h1v1h-1v3h1v1h-1v2h-1v-2h-1v2h-1v-2H76z M79,71v-3h-1v3H79z"/>
			<path class="st0" d="M82,68v-1h1v1H82z M85,65v9h-1v-7h-1v-1h1v-1H85z"/>
			<path class="st0" d="M90,73v-4h-1v1h-1v1h-1v2h-1v-7h1v4h1v-1h1v-1h1v-2h1v7H90z M90,66h-3v-1h3V66z M90,74h-3v-1h3V74z"/>
			<path class="st0" d="M93,68h-1v-2h1V68z M93,73h-1v-2h1V73z M96,66h-3v-1h3V66z M94,69h-1v-1h1V69z M93,71v-1h1v1H93z M96,74h-3
				v-1h3V74z M95,70h-1v-1h1V70z M95,69v-1h1v1H95z M96,71h-1v-1h1V71z M96,68v-2h1v2H96z M96,73v-2h1v2H96z"/>
		</g>
		<g>
			<path class="st0" d="M80,85v-4h-1v1h-1v1h-1v2h-1v-7h1v4h1v-1h1v-1h1v-2h1v7H80z M80,78h-3v-1h3V78z M80,86h-3v-1h3V86z"/>
			<path class="st0" d="M82,85v-1h1v-1h1v1h1v1h-1v1h-1v-1H82z"/>
			<path class="st0" d="M87,82h-1v-4h1V82z M90,78h-3v-1h3V78z M90,84v-1h-3v-1h3v-4h1v6H90z M87,86v-1h2v1H87z M89,85v-1h1v1H89z"
				/>
			<path class="st0" d="M92,79v-1h1v1h1v1h-1v-1H92z M92,84v-1h1v1H92z M94,78h-1v-1h1V78z M93,83v-1h1v1H93z M94,79v-1h1v1H94z
				 M94,82v-1h1v1H94z M94,85v-1h1v1h1v1h-1v-1H94z M95,81v-1h1v1H95z M96,84h-1v-1h1V84z M96,80v-1h1v1H96z M96,85v-1h1v1H96z"/>
		</g>
		<g>
			<g>
				<path class="st0" d="M69,58v4h-1v-9h4v1h1v3h-1v1H69z M69,57h3v-3h-3V57z"/>
				<path class="st0" d="M75,58v4h-1v-6h1v1h1v1H75z M78,57h-2v-1h2V57z M78,57h1v1h-1V57z"/>
				<path class="st0" d="M81,61h-1v-4h1V61z M84,57h-3v-1h3V57z M84,62h-3v-1h3V62z M84,61v-4h1v4H84z"/>
				<path class="st0" d="M87,61h-1v-4h1V61z M90,57h-3v-1h3V57z M90,62h-3v-1h3V62z M90,61v-4h1v4H90z"/>
				<path class="st0" d="M92,58v-1h2v-3h1v3h2v1h-2v4h-1v-4H92z M97,54h-2v-1h2V54z"/>
			</g>
		</g>
	</g>
	<path class="st0" d="M39,62h-4v-9h4v1h1v3h-1v1h1v3h-1V62z M36,57h3v-3h-3V57z M36,61h3v-3h-3V61z"/>
	<path class="st0" d="M42,61h-1v-4h1V61z M45,57h-3v-1h3V57z M45,62h-3v-1h3V62z M45,61v-4h1v4H45z"/>
	<path class="st0" d="M48,58v4h-1v-6h1v1h1v1H48z M51,57h-2v-1h2V57z M52,57v5h-1v-5H52z"/>
	<path class="st0" d="M54,58v4h-1v-6h1v1h1v1H54z M57,57h-2v-1h2V57z M58,57v5h-1v-5H58z"/>
	<path class="st0" d="M60,61h-1v-4h1V61z M63,57h-3v-1h3V57z M63,62h-3v-1h3V62z M63,61v-4h1v4H63z"/>
	<rect x="59" y="54" class="st0" width="5" height="1"/>
</g>
<g>
	<path class="st0" d="M78,192v-1h1v-1h1v1h1v1h-1v1h-1v-1H78z M78,194v-1h1v1H78z"/>
</g>
</svg>
